0
SECTION
2
HEADER
9
$ACADVER
1
AC1009
9
$INSBASE
10
0.0
20
0.0
30
0.0
9
$EXTMIN
10
-46.5000
20
-298.3465
30
0.0
9
$EXTMAX
10
976.5000
20
46.5000
30
0.0
9
$LIMMIN
10
-46.5000
20
-298.3465
9
$LIMMAX
10
976.5000
20
46.5000
0
ENDSEC
0
SECTION
2
TABLES
0
TABLE
2
VPORT
70
1
0
VPORT
2
*ACTIVE
70
0
10
0.0
20
0.0
11
1.0
21
1.0
12
0.0
22
0.0
13
0.0
23
0.0
14
1.0
24
1.0
15
0.0
25
0.0
16
0.0
26
0.0
36
1.0
37
1.0
40
1000.0
41
1.0
42
50.0
43
0.0
44
0.0
50
0.0
51
0.0
71
0
72
1000
73
1
74
3
75
0
76
0
77
0
78
0
0
ENDTAB
0
TABLE
2
LTYPE
70
1
0
LTYPE
2
CONTINUOUS
70
64
3
Solid line
72
65
73
0
40
0.0
0
ENDTAB
0
TABLE
2
LAYER
70
1
0
LAYER
2
0
70
0
62
7
6
CONTINUOUS
0
ENDTAB
0
TABLE
2
STYLE
70
1
0
STYLE
2
STANDARD
70
0
40
0.0
41
1.0
50
0.0
71
0
42
0.2
3
txt
4

0
ENDTAB
0
TABLE
2
VIEW
70
0
0
ENDTAB
0
TABLE
2
UCS
70
0
0
ENDTAB
0
TABLE
2
APPID
70
1
0
APPID
2
ACAD
70
0
0
ENDTAB
0
TABLE
2
DIMSTYLE
70
1
0
DIMSTYLE
2
STANDARD
70
0
3

4

5

6

7

40
0.0
41
0.0
42
0.0
43
0.0
44
0.0
45
0.0
46
0.0
47
0.0
48
0.0
140
0.0
141
0.0
142
0.0
143
0.0
144
0.0
145
0.0
146
0.0
147
0.0
148
0.0
71
0
72
0
73
0
74
0
75
0
76
0
77
0
78
0
79
0
0
ENDTAB
0
ENDSEC
0
SECTION
2
BLOCKS
0
BLOCK
8
0
2
*MODEL_SPACE
70
0
10
0.0
20
0.0
30
0.0
3
*MODEL_SPACE
1
*MODEL_SPACE
0
ENDBLK
8
0
0
BLOCK
8
0
2
*PAPER_SPACE
70
0
10
0.0
20
0.0
30
0.0
3
*PAPER_SPACE
1
*PAPER_SPACE
0
ENDBLK
8
0
0
ENDSEC
0
SECTION
2
ENTITIES
0
LINE
8
0
10
316.0000
20
-190.0000
30
0.0
11
514.7197
21
-190.9741
31
0.0
0
LINE
8
0
10
315.9755
20
-194.9999
30
0.0
11
514.6952
21
-195.9741
31
0.0
0
LINE
8
0
10
316.0245
20
-185.0001
30
0.0
11
514.7442
21
-185.9742
31
0.0
0
LINE
8
0
10
523.7667
20
-194.7006
30
0.0
11
573.0557
21
-243.1248
31
0.0
0
LINE
8
0
10
520.2626
20
-198.2673
30
0.0
11
569.5515
21
-246.6915
31
0.0
0
LINE
8
0
10
527.2708
20
-191.1339
30
0.0
11
576.5598
21
-239.5582
31
0.0
0
ARC
8
0
10
514.6560
20
-203.9740
30
0.0
40
13.0000
50
89.7191
51
45.5070
0
ARC
8
0
10
514.6560
20
-203.9740
30
0.0
40
18.0000
50
89.7191
51
45.5070
0
ARC
8
0
10
514.6560
20
-203.9740
30
0.0
40
8.0000
50
89.7191
51
45.5070
0
LINE
8
0
10
514.7442
20
-185.9742
30
0.0
11
514.6952
21
-195.9741
31
0.0
0
LINE
8
0
10
527.2708
20
-191.1339
30
0.0
11
520.2626
21
-198.2673
31
0.0
0
LINE
8
0
10
582.5273
20
-246.8465
30
0.0
11
681.3326
21
-244.1019
31
0.0
0
LINE
8
0
10
582.6661
20
-251.8445
30
0.0
11
681.4714
21
-249.0999
31
0.0
0
LINE
8
0
10
582.3885
20
-241.8484
30
0.0
11
681.1937
21
-239.1038
31
0.0
0
ARC
8
0
10
582.1663
20
-233.8515
30
0.0
40
13.0000
50
225.5070
51
271.5911
0
ARC
8
0
10
582.1663
20
-233.8515
30
0.0
40
18.0000
50
225.5070
51
271.5911
0
ARC
8
0
10
582.1663
20
-233.8515
30
0.0
40
8.0000
50
225.5070
51
271.5911
0
LINE
8
0
10
569.5515
20
-246.6915
30
0.0
11
576.5598
21
-239.5582
31
0.0
0
LINE
8
0
10
582.6661
20
-251.8445
30
0.0
11
582.3885
21
-241.8484
31
0.0
0
LINE
8
0
10
688.0731
20
-241.9958
30
0.0
11
771.9197
21
-187.3132
31
0.0
0
LINE
8
0
10
690.8044
20
-246.1839
30
0.0
11
774.6510
21
-191.5013
31
0.0
0
LINE
8
0
10
685.3417
20
-237.8078
30
0.0
11
769.1884
21
-183.1252
31
0.0
0
ARC
8
0
10
680.9716
20
-231.1069
30
0.0
40
13.0000
50
271.5911
51
303.1113
0
ARC
8
0
10
680.9716
20
-231.1069
30
0.0
40
18.0000
50
271.5911
51
303.1113
0
ARC
8
0
10
680.9716
20
-231.1069
30
0.0
40
8.0000
50
271.5911
51
303.1113
0
LINE
8
0
10
681.4714
20
-249.0999
30
0.0
11
681.1937
21
-239.1038
31
0.0
0
LINE
8
0
10
690.8044
20
-246.1839
30
0.0
11
685.3417
21
-237.8078
31
0.0
0
LINE
8
0
10
782.8029
20
-185.7644
30
0.0
11
925.0000
21
-229.0000
31
0.0
0
LINE
8
0
10
781.3484
20
-190.5482
30
0.0
11
923.5455
21
-233.7838
31
0.0
0
LINE
8
0
10
784.2575
20
-180.9806
30
0.0
11
926.4545
21
-224.2162
31
0.0
0
ARC
8
0
10
779.0212
20
-198.2022
30
0.0
40
13.0000
50
123.1113
51
73.0879
0
ARC
8
0
10
779.0212
20
-198.2022
30
0.0
40
18.0000
50
123.1113
51
73.0879
0
ARC
8
0
10
779.0212
20
-198.2022
30
0.0
40
8.0000
50
123.1113
51
73.0879
0
LINE
8
0
10
769.1884
20
-183.1252
30
0.0
11
774.6510
21
-191.5013
31
0.0
0
LINE
8
0
10
784.2575
20
-180.9806
30
0.0
11
781.3484
21
-190.5482
31
0.0
0
ENDSEC
0
EOF