<?xml version="1.0" standalone="no"?><!DOCTYPE svg PUBLIC "-//W3C//DTD SVG 1.1//EN" "http://www.w3.org/Graphics/SVG/1.1/DTD/svg11.dtd"><svg t="1773744366794" class="icon" viewBox="0 0 1024 1024" version="1.1" xmlns="http://www.w3.org/2000/svg" p-id="1711" xmlns:xlink="http://www.w3.org/1999/xlink" width="200" height="200"><path d="M299.9296 731.2384V343.7568a71.68 71.68 0 0 0 42.7008-43.0592h384a74.0864 74.0864 0 1 0 1.9456-48.9472H342.6304A69.4784 69.4784 0 0 0 276.6848 204.8a71.68 71.68 0 0 0-71.68 70.5024 70.0416 70.0416 0 0 0 46.592 66.56v387.4304a77.312 77.312 0 0 0-46.592 70.5024 69.8368 69.8368 0 0 0 135.8336 23.5008h50.432v-47.0528h-50.432a67.4304 67.4304 0 0 0-40.9088-45.0048z m483.1232-309.1968a16.4352 16.4352 0 0 0-25.2416 0l-23.2448 23.5008a16.7936 16.7936 0 0 0 0 25.6l73.728 74.3424a16.4352 16.4352 0 0 0 25.2416 0l23.2448-23.5008a16.7936 16.7936 0 0 0 0-25.6z m-322.0992 399.36l110.592-9.7792-100.9152-99.7376z m261.9392-326.8608a29.2864 29.2864 0 0 0-38.8096 0l-129.9968 133.12-48.5888 47.0016-19.4048 19.5584 100.9152 99.7888 19.4048-19.8656 178.6368-180.0704a29.9008 29.9008 0 0 0 0-39.1168z" fill="#1C9399" p-id="1712"></path></svg>